<?xml version="1.0" encoding="UTF-8" standalone="no"?>
<svg
   xmlns:dc="http://purl.org/dc/elements/1.1/"
   xmlns:cc="http://creativecommons.org/ns#"
   xmlns:rdf="http://www.w3.org/1999/02/22-rdf-syntax-ns#"
   xmlns:svg="http://www.w3.org/2000/svg"
   xmlns="http://www.w3.org/2000/svg"
   xmlns:sodipodi="http://sodipodi.sourceforge.net/DTD/sodipodi-0.dtd"
   xmlns:inkscape="http://www.inkscape.org/namespaces/inkscape"
   width="525.20911"
   height="351.73615"
   viewBox="41 43 292.05948 191.36617"
   id="svg3113"
   version="1.1"
   inkscape:version="0.48.4 r9939"
   sodipodi:docname="MMCCVV.svg">
  <metadata
     id="metadata3365">
    <rdf:RDF>
      <cc:Work
         rdf:about="">
        <dc:format>image/svg+xml</dc:format>
        <dc:type
           rdf:resource="http://purl.org/dc/dcmitype/StillImage" />
      </cc:Work>
    </rdf:RDF>
  </metadata>
  <defs
     id="defs3363" />
  <sodipodi:namedview
     pagecolor="#ffffff"
     bordercolor="#666666"
     borderopacity="1"
     objecttolerance="10"
     gridtolerance="10"
     guidetolerance="10"
     inkscape:pageopacity="0"
     inkscape:pageshadow="2"
     inkscape:window-width="640"
     inkscape:window-height="480"
     id="namedview3361"
     showgrid="false"
     inkscape:zoom="0.35539094"
     inkscape:cx="476.54817"
     inkscape:cy="26.588992"
     inkscape:window-x="0"
     inkscape:window-y="25"
     inkscape:window-maximized="0"
     inkscape:current-layer="svg3113"
     fit-margin-top="10"
     fit-margin-left="0"
     fit-margin-right="0"
     fit-margin-bottom="0" />
  <g
     id="g3115"
     transform="matrix(0.54908074,0,0,0.54908074,17.938609,23.315675)">
    <rect
       style="fill:#ffffff"
       x="200"
       y="121"
       width="115"
       height="38"
       id="rect3117" />
    <rect
       style="fill:none;stroke:#000000;stroke-width:2"
       x="200"
       y="121"
       width="115"
       height="38"
       id="rect3119" />
    <text
       font-size="12.8"
       style="font-size:12.80000019px;font-style:normal;font-weight:normal;text-anchor:middle;fill:#000000;font-family:sans-serif"
       x="257.5"
       y="143.89999"
       id="text3121">
      <tspan
         x="257.5"
         y="143.89999"
         id="tspan3123">Model</tspan>
    </text>
  </g>
  <g
     id="g3125"
     transform="matrix(0.54908074,0,0,0.54908074,17.938609,23.315675)">
    <rect
       style="fill:#ffffff"
       x="205"
       y="260"
       width="108"
       height="38"
       id="rect3127" />
    <rect
       style="fill:none;stroke:#000000;stroke-width:2"
       x="205"
       y="260"
       width="108"
       height="38"
       id="rect3129" />
    <text
       font-size="12.8"
       style="font-size:12.80000019px;font-style:normal;font-weight:normal;text-anchor:middle;fill:#000000;font-family:sans-serif"
       x="259"
       y="282.89999"
       id="text3131">
      <tspan
         x="259"
         y="282.89999"
         id="tspan3133">Controller</tspan>
    </text>
  </g>
  <g
     id="g3135"
     transform="matrix(0.54908074,0,0,0.54908074,17.938609,23.315675)">
    <rect
       style="fill:#ffffff"
       x="72"
       y="351"
       width="70"
       height="38"
       id="rect3137" />
    <rect
       style="fill:none;stroke:#000000;stroke-width:2"
       x="72"
       y="351"
       width="70"
       height="38"
       id="rect3139" />
    <text
       font-size="12.8"
       style="font-size:12.80000019px;font-style:normal;font-weight:normal;text-anchor:middle;fill:#000000;font-family:sans-serif"
       x="107"
       y="373.89999"
       id="text3141">
      <tspan
         x="107"
         y="373.89999"
         id="tspan3143">View</tspan>
    </text>
  </g>
  <g
     id="g3145"
     transform="matrix(0.54908074,0,0,0.54908074,17.938609,23.315675)">
    <rect
       style="fill:#ffffff"
       x="160.3"
       y="351.10001"
       width="70"
       height="38"
       id="rect3147" />
    <rect
       style="fill:none;stroke:#000000;stroke-width:2"
       x="160.3"
       y="351.10001"
       width="70"
       height="38"
       id="rect3149" />
    <text
       font-size="12.8"
       style="font-size:12.80000019px;font-style:normal;font-weight:normal;text-anchor:middle;fill:#000000;font-family:sans-serif"
       x="195.3"
       y="374"
       id="text3151">
      <tspan
         x="195.3"
         y="374"
         id="tspan3153">View</tspan>
    </text>
  </g>
  <g
     id="g3155"
     transform="matrix(0.54908074,0,0,0.54908074,17.938609,23.315675)">
    <rect
       style="fill:#ffffff"
       x="244.60001"
       y="350.20001"
       width="70"
       height="38"
       id="rect3157" />
    <rect
       style="fill:none;stroke:#000000;stroke-width:2"
       x="244.60001"
       y="350.20001"
       width="70"
       height="38"
       id="rect3159" />
    <text
       font-size="12.8"
       style="font-size:12.80000019px;font-style:normal;font-weight:normal;text-anchor:middle;fill:#000000;font-family:sans-serif"
       x="279.60001"
       y="373.10001"
       id="text3161">
      <tspan
         x="279.60001"
         y="373.10001"
         id="tspan3163">View</tspan>
    </text>
  </g>
  <g
     id="g3165"
     transform="matrix(0.54908074,0,0,0.54908074,17.938609,23.315675)">
    <line
       style="fill:none;stroke:#000000;stroke-width:2"
       x1="255.565"
       y1="300.86401"
       x2="198.735"
       y2="348.23599"
       id="line3167" />
    <polyline
       style="fill:none;stroke:#000000;stroke-width:2"
       points="252.803,309.675 257.282,299.432 246.4,301.994 "
       id="polyline3169" />
    <polyline
       style="fill:none;stroke:#000000;stroke-width:2"
       points="201.497,339.425 197.018,349.668 207.9,347.106 "
       id="polyline3171" />
  </g>
  <g
     id="g3173"
     transform="matrix(0.54908074,0,0,0.54908074,17.938609,23.315675)">
    <line
       style="fill:none;stroke:#000000;stroke-width:2"
       x1="227.883"
       y1="299.746"
       x2="111.117"
       y2="349.254"
       id="line3175" />
    <polyline
       style="fill:none;stroke:#000000;stroke-width:2"
       points="222.687,307.38 229.941,298.873 218.783,298.173 "
       id="polyline3177" />
    <polyline
       style="fill:none;stroke:#000000;stroke-width:2"
       points="116.313,341.62 109.059,350.127 120.217,350.827 "
       id="polyline3179" />
  </g>
  <g
     id="g3181"
     transform="matrix(0.54908074,0,0,0.54908074,17.938609,23.315675)">
    <line
       style="fill:none;stroke:#000000;stroke-width:2"
       x1="266.02899"
       y1="303.29501"
       x2="278.35699"
       y2="345.90399"
       id="line3183" />
    <polyline
       style="fill:none;stroke:#000000;stroke-width:2"
       points="272.99,309.363 265.408,301.147 263.384,312.143 "
       id="polyline3185" />
    <polyline
       style="fill:none;stroke:#000000;stroke-width:2"
       points="271.396,339.836 278.979,348.052 281.002,337.056 "
       id="polyline3187" />
  </g>
  <g
     id="g3189"
     transform="matrix(0.54908074,0,0,0.54908074,17.938609,23.315675)">
    <line
       style="fill:none;stroke:#000000;stroke-width:2"
       x1="257.61899"
       y1="163.47099"
       x2="258.181"
       y2="184.629"
       id="line3191" />
    <polyline
       style="fill:none;stroke:#000000;stroke-width:2"
       points="262.823,171.099 257.559,161.235 252.827,171.365 "
       id="polyline3193" />
    <polyline
       style="fill:none;stroke:#000000;stroke-width:2"
       points="252.977,177.001 258.241,186.865 262.973,176.735 "
       id="polyline3195" />
  </g>
  <g
     id="g3197"
     transform="matrix(0.54908074,0,0,0.54908074,17.938609,23.315675)">
    <rect
       style="fill:#ffffff"
       x="341.29999"
       y="121.1"
       width="115"
       height="38"
       id="rect3199" />
    <rect
       style="fill:none;stroke:#000000;stroke-width:2"
       x="341.29999"
       y="121.1"
       width="115"
       height="38"
       id="rect3201" />
    <text
       font-size="12.8"
       style="font-size:12.80000019px;font-style:normal;font-weight:normal;text-anchor:middle;fill:#000000;font-family:sans-serif"
       x="398.79999"
       y="144"
       id="text3203">
      <tspan
         x="398.79999"
         y="144"
         id="tspan3205">Model</tspan>
    </text>
  </g>
  <g
     id="g3207"
     transform="matrix(0.54908074,0,0,0.54908074,17.938609,23.315675)">
    <rect
       style="fill:#ffffff"
       x="272.07501"
       y="45"
       width="130.85001"
       height="40"
       id="rect3209" />
    <rect
       style="fill:none;stroke:#000000;stroke-width:2"
       x="272.07501"
       y="45"
       width="130.85001"
       height="40"
       id="rect3211" />
    <text
       font-size="12.7998"
       style="font-size:12.79979992px;font-style:normal;font-weight:normal;text-anchor:middle;fill:#000000;font-family:sans-serif"
       x="337.5"
       y="68.900002"
       id="text3213">
      <tspan
         x="337.5"
         y="68.900002"
         id="tspan3215">Master Database</tspan>
    </text>
  </g>
  <g
     id="g3217"
     transform="matrix(0.54908074,0,0,0.54908074,17.938609,23.315675)">
    <rect
       style="fill:#ffffff"
       x="204.3"
       y="189.10001"
       width="108"
       height="38"
       id="rect3219" />
    <rect
       style="fill:none;stroke:#000000;stroke-width:2"
       x="204.3"
       y="189.10001"
       width="108"
       height="38"
       id="rect3221" />
    <text
       font-size="12.8"
       style="font-size:12.80000019px;font-style:normal;font-weight:normal;text-anchor:middle;fill:#000000;font-family:sans-serif"
       x="258.29999"
       y="212"
       id="text3223">
      <tspan
         x="258.29999"
         y="212"
         id="tspan3225">Controller</tspan>
    </text>
  </g>
  <g
     id="g3227"
     transform="matrix(0.54908074,0,0,0.54908074,17.938609,23.315675)">
    <line
       style="fill:none;stroke:#000000;stroke-width:2"
       x1="258.39499"
       y1="231.571"
       x2="258.905"
       y2="255.52901"
       id="line3229" />
    <polyline
       style="fill:none;stroke:#000000;stroke-width:2"
       points="263.559,239.227 258.348,229.336 253.561,239.44 "
       id="polyline3231" />
    <polyline
       style="fill:none;stroke:#000000;stroke-width:2"
       points="253.741,247.873 258.952,257.764 263.739,247.66 "
       id="polyline3233" />
  </g>
  <g
     id="g3235"
     transform="matrix(0.54908074,0,0,0.54908074,17.938609,23.315675)">
    <rect
       style="fill:#ffffff"
       x="463.29999"
       y="258"
       width="108"
       height="38"
       id="rect3237" />
    <rect
       style="fill:none;stroke:#000000;stroke-width:2"
       x="463.29999"
       y="258"
       width="108"
       height="38"
       id="rect3239" />
    <text
       font-size="12.8"
       style="font-size:12.80000019px;font-style:normal;font-weight:normal;text-anchor:middle;fill:#000000;font-family:sans-serif"
       x="517.29999"
       y="280.89999"
       id="text3241">
      <tspan
         x="517.29999"
         y="280.89999"
         id="tspan3243">Controller</tspan>
    </text>
  </g>
  <g
     id="g3245"
     transform="matrix(0.54908074,0,0,0.54908074,17.938609,23.315675)">
    <rect
       style="fill:#ffffff"
       x="330.29999"
       y="349"
       width="70"
       height="38"
       id="rect3247" />
    <rect
       style="fill:none;stroke:#000000;stroke-width:2"
       x="330.29999"
       y="349"
       width="70"
       height="38"
       id="rect3249" />
    <text
       font-size="12.8"
       style="font-size:12.80000019px;font-style:normal;font-weight:normal;text-anchor:middle;fill:#000000;font-family:sans-serif"
       x="365.29999"
       y="371.89999"
       id="text3251">
      <tspan
         x="365.29999"
         y="371.89999"
         id="tspan3253">View</tspan>
    </text>
  </g>
  <g
     id="g3255"
     transform="matrix(0.54908074,0,0,0.54908074,17.938609,23.315675)">
    <rect
       style="fill:#ffffff"
       x="418.60001"
       y="349.10001"
       width="70"
       height="38"
       id="rect3257" />
    <rect
       style="fill:none;stroke:#000000;stroke-width:2"
       x="418.60001"
       y="349.10001"
       width="70"
       height="38"
       id="rect3259" />
    <text
       font-size="12.8"
       style="font-size:12.80000019px;font-style:normal;font-weight:normal;text-anchor:middle;fill:#000000;font-family:sans-serif"
       x="453.60001"
       y="372"
       id="text3261">
      <tspan
         x="453.60001"
         y="372"
         id="tspan3263">View</tspan>
    </text>
  </g>
  <g
     id="g3265"
     transform="matrix(0.54908074,0,0,0.54908074,17.938609,23.315675)">
    <rect
       style="fill:#ffffff"
       x="502.89999"
       y="348.20001"
       width="70"
       height="38"
       id="rect3267" />
    <rect
       style="fill:none;stroke:#000000;stroke-width:2"
       x="502.89999"
       y="348.20001"
       width="70"
       height="38"
       id="rect3269" />
    <text
       font-size="12.8"
       style="font-size:12.80000019px;font-style:normal;font-weight:normal;text-anchor:middle;fill:#000000;font-family:sans-serif"
       x="537.90002"
       y="371.10001"
       id="text3271">
      <tspan
         x="537.90002"
         y="371.10001"
         id="tspan3273">View</tspan>
    </text>
  </g>
  <g
     id="g3275"
     transform="matrix(0.54908074,0,0,0.54908074,17.938609,23.315675)">
    <line
       style="fill:none;stroke:#000000;stroke-width:2"
       x1="513.86499"
       y1="298.86401"
       x2="457.035"
       y2="346.23599"
       id="line3277" />
    <polyline
       style="fill:none;stroke:#000000;stroke-width:2"
       points="511.103,307.675 515.582,297.432 504.7,299.994 "
       id="polyline3279" />
    <polyline
       style="fill:none;stroke:#000000;stroke-width:2"
       points="459.797,337.425 455.318,347.668 466.2,345.106 "
       id="polyline3281" />
  </g>
  <g
     id="g3283"
     transform="matrix(0.54908074,0,0,0.54908074,17.938609,23.315675)">
    <line
       style="fill:none;stroke:#000000;stroke-width:2"
       x1="486.18301"
       y1="297.746"
       x2="369.41699"
       y2="347.254"
       id="line3285" />
    <polyline
       style="fill:none;stroke:#000000;stroke-width:2"
       points="480.987,305.38 488.241,296.873 477.083,296.173 "
       id="polyline3287" />
    <polyline
       style="fill:none;stroke:#000000;stroke-width:2"
       points="374.613,339.62 367.359,348.127 378.517,348.827 "
       id="polyline3289" />
  </g>
  <g
     id="g3291"
     transform="matrix(0.54908074,0,0,0.54908074,17.938609,23.315675)">
    <line
       style="fill:none;stroke:#000000;stroke-width:2"
       x1="524.32898"
       y1="301.29501"
       x2="536.65698"
       y2="343.90399"
       id="line3293" />
    <polyline
       style="fill:none;stroke:#000000;stroke-width:2"
       points="531.29,307.363 523.708,299.147 521.684,310.143 "
       id="polyline3295" />
    <polyline
       style="fill:none;stroke:#000000;stroke-width:2"
       points="529.696,337.836 537.279,346.052 539.302,335.056 "
       id="polyline3297" />
  </g>
  <g
     id="g3299"
     transform="matrix(0.54908074,0,0,0.54908074,17.938609,23.315675)">
    <rect
       style="fill:#ffffff"
       x="462.60001"
       y="187.10001"
       width="108"
       height="38"
       id="rect3301" />
    <rect
       style="fill:none;stroke:#000000;stroke-width:2"
       x="462.60001"
       y="187.10001"
       width="108"
       height="38"
       id="rect3303" />
    <text
       font-size="12.8"
       style="font-size:12.80000019px;font-style:normal;font-weight:normal;text-anchor:middle;fill:#000000;font-family:sans-serif"
       x="516.59998"
       y="210"
       id="text3305">
      <tspan
         x="516.59998"
         y="210"
         id="tspan3307">Controller</tspan>
    </text>
  </g>
  <g
     id="g3309"
     transform="matrix(0.54908074,0,0,0.54908074,17.938609,23.315675)">
    <line
       style="fill:none;stroke:#000000;stroke-width:2"
       x1="516.69501"
       y1="229.571"
       x2="517.20502"
       y2="253.52901"
       id="line3311" />
    <polyline
       style="fill:none;stroke:#000000;stroke-width:2"
       points="521.859,237.227 516.648,227.336 511.861,237.44 "
       id="polyline3313" />
    <polyline
       style="fill:none;stroke:#000000;stroke-width:2"
       points="512.041,245.873 517.252,255.764 522.039,245.66 "
       id="polyline3315" />
  </g>
  <g
     id="g3317"
     transform="matrix(0.54908074,0,0,0.54908074,17.938609,23.315675)">
    <line
       style="fill:none;stroke:#000000;stroke-width:2"
       x1="403.151"
       y1="160.134"
       x2="512.24902"
       y2="186.06599"
       id="line3319" />
    <polyline
       style="fill:none;stroke:#000000;stroke-width:2"
       points="411.861,157.065 400.975,159.617 409.548,166.794 "
       id="polyline3321" />
    <polyline
       style="fill:none;stroke:#000000;stroke-width:2"
       points="503.539,189.135 514.425,186.583 505.852,179.406 "
       id="polyline3323" />
  </g>
  <g
     id="g3325"
     transform="matrix(0.54908074,0,0,0.54908074,17.938609,23.315675)">
    <line
       style="fill:none;stroke:#000000;stroke-width:2"
       x1="261.05801"
       y1="118.291"
       x2="301.229"
       y2="87.7089"
       id="line3327" />
    <polyline
       style="fill:none;stroke:#000000;stroke-width:2"
       points="264.207,109.61 259.279,119.646 270.264,117.566 "
       id="polyline3329" />
    <polyline
       style="fill:none;stroke:#000000;stroke-width:2"
       points="298.08,96.3902 303.008,86.3545 292.023,88.4335 "
       id="polyline3331" />
  </g>
  <g
     id="g3333"
     transform="matrix(0.54908074,0,0,0.54908074,17.938609,23.315675)">
    <line
       style="fill:none;stroke:#000000;stroke-width:2"
       x1="396.02399"
       y1="117.594"
       x2="372.98901"
       y2="88.505997"
       id="line3335" />
    <polyline
       style="fill:none;stroke:#000000;stroke-width:2"
       points="387.284,114.612 397.412,119.347 395.123,108.403 "
       id="polyline3337" />
    <polyline
       style="fill:none;stroke:#000000;stroke-width:2"
       points="381.729,91.4885 371.601,86.753 373.889,97.6966 "
       id="polyline3339" />
  </g>
  <g
     id="g3341"
     transform="matrix(0.54908074,0,0,0.54908074,17.938609,23.315675)">
    <rect
       style="fill:#ffffff"
       x="43"
       y="182"
       width="127"
       height="54"
       id="rect3343" />
    <rect
       style="fill:none;stroke:#000000;stroke-width:2"
       x="43"
       y="182"
       width="127"
       height="54"
       id="rect3345" />
    <text
       font-size="12.7998"
       style="font-size:12.79979992px;font-style:normal;font-weight:normal;text-anchor:middle;fill:#000000;font-family:sans-serif"
       x="106.5"
       y="204.89999"
       id="text3347">
      <tspan
         x="106.5"
         y="204.89999"
         id="tspan3349">Other</tspan>
      <tspan
         x="106.5"
         y="220.89999"
         id="tspan3351">Events</tspan>
    </text>
  </g>
  <g
     id="g3353"
     transform="matrix(0.54908074,0,0,0.54908074,17.938609,23.315675)">
    <line
       style="fill:none;stroke:#000000;stroke-width:2"
       x1="174.47099"
       y1="208.883"
       x2="199.82899"
       y2="208.217"
       id="line3355" />
    <polyline
       style="fill:none;stroke:#000000;stroke-width:2"
       points="182.101,203.681 172.235,208.941 182.363,213.677 "
       id="polyline3357" />
    <polyline
       style="fill:none;stroke:#000000;stroke-width:2"
       points="192.199,213.419 202.065,208.159 191.937,203.423 "
       id="polyline3359" />
  </g>
</svg>
